<svg xmlns="http://www.w3.org/2000/svg" version="1.1" xmlns:xlink="http://www.w3.org/1999/xlink" xmlns:svgjs="http://svgjs.dev/svgjs" width="2000" height="409" viewBox="0 0 2000 409"><g transform="matrix(1,0,0,1,-1.2121212121212466,-0.9565187828134185)"><svg viewBox="0 0 396 81" data-background-color="#fffbf4" preserveAspectRatio="xMidYMid meet" height="409" width="2000" xmlns="http://www.w3.org/2000/svg" xmlns:xlink="http://www.w3.org/1999/xlink"><g id="tight-bounds" transform="matrix(1,0,0,1,0.2400000000000091,0.18943281517820765)"><svg viewBox="0 0 395.52 80.62113436964357" height="80.62113436964357" width="395.52"><g><svg viewBox="0 0 519.501968033572 105.89309761865111" height="80.62113436964357" width="395.52"><g transform="matrix(1,0,0,1,123.981968033572,14.635008426311408)"><svg viewBox="0 0 395.52 76.6230807660283" height="76.6230807660283" width="395.52"><g id="textblocktransform"><svg viewBox="0 0 395.52 76.6230807660283" height="76.6230807660283" width="395.52" id="textblock"><g><svg viewBox="0 0 395.52 76.6230807660283" height="76.6230807660283" width="395.52"><g transform="matrix(1,0,0,1,0,0)"><svg width="395.52" viewBox="2.15 -34.6 180.14 34.9" height="76.6230807660283" data-palette-color="#3d4950"><path d="M17.9-26.1L17.9-26.1Q15.75-26.1 14.73-24.85 13.7-23.6 13.7-20.4L13.7-20.4 13.7-14.5 22-14.5 22-20.5Q22-22.6 21.5-23.88 21-25.15 20.13-25.63 19.25-26.1 17.9-26.1ZM22-4.95L22-7.6 13.7-7.6 13.7-4.95Q13.7-2.4 12.35-1.2 11 0 7.7 0L7.7 0Q6.3 0 5.4-0.4 4.5-0.8 3.83-1.75 3.15-2.7 2.83-4.53 2.5-6.35 2.33-8.93 2.15-11.5 2.15-15.45L2.15-15.45Q2.15-18.9 2.88-21.78 3.6-24.65 4.83-26.65 6.05-28.65 7.6-30.18 9.15-31.7 10.98-32.55 12.8-33.4 14.53-33.83 16.25-34.25 18-34.25L18-34.25Q20.1-34.25 22.15-33.68 24.2-33.1 26.3-31.7 28.4-30.3 29.98-28.23 31.55-26.15 32.55-22.85 33.55-19.55 33.55-15.45L33.55-15.45Q33.55-8.85 33.08-5.68 32.6-2.5 31.48-1.25 30.35 0 28 0L28 0Q24.7 0 23.35-1.2 22-2.4 22-4.95L22-4.95ZM37.75-30.8L37.75-30.8Q37.75-32.45 39.17-33.52 40.6-34.6 43.2-34.6L43.2-34.6Q48.65-34.6 48.65-30.8L48.65-30.8Q48.65-28.7 47.27-27.85 45.9-27 43.2-27L43.2-27Q40.85-27 39.3-27.9 37.75-28.8 37.75-30.8ZM48.6-18.35L48.6-5.35Q48.6-2.35 47.35-1.18 46.1 0 42.95 0L42.95 0Q40 0 38.92-1.38 37.85-2.75 37.85-5.9L37.85-5.9 37.85-18.2Q37.85-20.75 39.22-22.3 40.6-23.85 42.9-23.85L42.9-23.85Q45.6-23.85 47.1-22.68 48.6-21.5 48.6-18.35L48.6-18.35ZM63.9-15.4L63.9-5.35Q63.9-2.35 62.65-1.18 61.4 0 58.2 0L58.2 0Q55.25 0 54.2-1.38 53.15-2.75 53.15-5.9L53.15-5.9 53.15-18.2Q53.15-19.9 53.75-21.18 54.35-22.45 55.5-23.15 56.65-23.85 58.2-23.85L58.2-23.85Q62-23.85 63.2-21.65L63.2-21.65Q66.09-23.85 68.8-23.85L68.8-23.85Q74.05-23.85 74.05-18.85L74.05-18.85Q74.05-16.85 72.9-15.6 71.75-14.35 69.9-14.35L69.9-14.35Q68.8-14.35 68.12-14.8 67.45-15.25 66.87-15.7 66.3-16.15 65.55-16.15L65.55-16.15Q64.45-16.15 63.9-15.4L63.9-15.4ZM90.29-7.1L90.29-7.1 88.49-7.1Q88.49-4.5 86.99-2.25 85.49 0 82.99 0L82.99 0Q80.19 0 78.87-1.58 77.54-3.15 77.54-7.15L77.54-7.15 77.54-27.7Q77.54-29.85 78.24-31.18 78.94-32.5 80.07-33.05 81.19-33.6 82.99-33.7L82.99-33.7Q86.09-33.7 87.14-31.63 88.19-29.55 88.19-24.45L88.19-24.45Q88.19-20.5 87.74-17.5L87.74-17.5Q88.09-16.4 89.99-16.4L89.99-16.4Q91.19-16.4 91.62-16.93 92.04-17.45 92.04-19.05L92.04-19.05Q92.04-21.4 93.27-22.45 94.49-23.5 97.44-23.5L97.44-23.5Q100.54-23.5 101.62-22.38 102.69-21.25 102.69-18.3L102.69-18.3Q102.69-15.2 100.84-13.5 98.99-11.8 96.69-11.8L96.69-11.8Q99.04-11.8 100.87-10.38 102.69-8.95 102.69-6.1L102.69-6.1Q102.69-2.3 101.67-1.15 100.64 0 97.44 0L97.44 0Q94.49 0 93.27-1.07 92.04-2.15 92.04-4.45L92.04-4.45Q92.04-5.6 91.84-6.18 91.64-6.75 91.32-6.93 90.99-7.1 90.29-7.1ZM115.59 0.3L115.59 0.3Q111.64 0.3 109.04-2.93 106.44-6.15 106.44-11.75L106.44-11.75Q106.44-17.45 109.02-20.83 111.59-24.2 115.59-24.2L115.59-24.2Q119.64-24.2 123.09-21.35L123.09-21.35Q124.44-23.85 127.44-23.85L127.44-23.85Q130.14-23.85 131.64-22.68 133.14-21.5 133.14-18.35L133.14-18.35 133.14-5.35Q133.14-2.35 131.89-1.18 130.64 0 127.49 0L127.49 0Q124.19 0 123.14-1.85L123.14-1.85Q119.94 0.3 115.59 0.3ZM122.39-7.2L122.39-16.55Q121.54-18 120.19-18L120.19-18Q118.89-18 118.09-16.1 117.29-14.2 117.29-11.75L117.29-11.75Q117.29-9.45 118.04-7.65 118.79-5.85 120.14-5.85L120.14-5.85Q121.54-5.85 122.39-7.2L122.39-7.2ZM148.59-15.4L148.59-5.35Q148.59-2.35 147.34-1.18 146.09 0 142.89 0L142.89 0Q139.94 0 138.89-1.38 137.84-2.75 137.84-5.9L137.84-5.9 137.84-18.2Q137.84-19.9 138.44-21.18 139.04-22.45 140.19-23.15 141.34-23.85 142.89-23.85L142.89-23.85Q146.69-23.85 147.89-21.65L147.89-21.65Q150.79-23.85 153.49-23.85L153.49-23.85Q158.74-23.85 158.74-18.85L158.74-18.85Q158.74-16.85 157.59-15.6 156.44-14.35 154.59-14.35L154.59-14.35Q153.49-14.35 152.81-14.8 152.14-15.25 151.56-15.7 150.99-16.15 150.24-16.15L150.24-16.15Q149.14-16.15 148.59-15.4L148.59-15.4ZM164.44-10.7L164.44-10.7 164.44-16.6Q163.19-16.65 162.44-17.03 161.69-17.4 161.36-18 161.04-18.6 161.04-19.5L161.04-19.5Q161.04-22.35 164.49-22.6L164.49-22.6 164.49-27.25Q164.49-29.15 167.24-30.68 169.99-32.2 172.69-32.2L172.69-32.2Q174.34-32.2 174.84-31.25 175.34-30.3 175.34-28.4L175.34-28.4 175.39-22.65 176.74-22.65Q179.49-22.65 180.51-21.93 181.54-21.2 181.54-19.3L181.54-19.3Q181.54-18.5 181.24-17.95 180.94-17.4 180.26-17.1 179.59-16.8 178.64-16.68 177.69-16.55 176.29-16.55L176.29-16.55 175.39-16.55 175.39-11.05Q175.39-10.25 175.46-9.73 175.54-9.2 175.69-8.9 175.84-8.6 176.11-8.5 176.39-8.4 176.79-8.4L176.79-8.4Q177.39-8.4 177.79-8.83 178.19-9.25 178.41-9.78 178.64-10.3 179.01-10.73 179.39-11.15 179.89-11.15L179.89-11.15Q181.04-11.15 181.66-10.6 182.29-10.05 182.29-9.25L182.29-9.25Q182.29-7.9 181.76-6.35 181.24-4.8 180.24-3.35 179.24-1.9 177.46-0.95 175.69 0 173.49 0L173.49 0Q168.54 0 166.49-2.5 164.44-5 164.44-10.7Z" opacity="1" transform="matrix(1,0,0,1,0,0)" fill="#3d4950" class="wordmark-text-0" data-fill-palette-color="primary" id="text-0"></path></svg></g></svg></g></svg></g></svg></g><g><svg viewBox="0 0 105.8930976186511 105.89309761865111" height="105.89309761865111" width="105.8930976186511"><g><svg></svg></g><g id="icon-0"><svg viewBox="0 0 105.8930976186511 105.89309761865111" height="105.89309761865111" width="105.8930976186511"><g><path transform="scale(1.05893,1.05893)" d="M30 100c-16.569 0-30-13.431-30-30v-40c0-16.569 13.431-30 30-30h40c16.569 0 30 13.431 30 30v40c0 16.569-13.431 30-30 30z" fill="#ff4993" fill-rule="nonzero" stroke="none" stroke-width="1" stroke-linecap="butt" stroke-linejoin="miter" stroke-miterlimit="10" stroke-dasharray="" stroke-dashoffset="0" font-family="none" font-weight="none" font-size="none" text-anchor="none" style="mix-blend-mode: normal" data-fill-palette-color="accent"></path></g><g transform="matrix(1,0,0,1,22.476072081186466,21.178619523730227)"><svg viewBox="0 0 60.940953456278166 63.53585857119066" height="63.53585857119066" width="60.940953456278166"><g><svg xmlns="http://www.w3.org/2000/svg" xmlns:xlink="http://www.w3.org/1999/xlink" version="1.1" x="0" y="0" viewBox="11.299999999999999 9.6 77.5 80.80000000000001" enable-background="new 0 0 100 100" xml:space="preserve" height="63.53585857119066" width="60.940953456278166" class="icon-cg-0" data-fill-palette-color="quaternary" id="cg-0"><g fill="#fffbf4" data-fill-palette-color="quaternary"><g fill="#fffbf4" data-fill-palette-color="quaternary"><path d="M81.9 47.2V22.9H32.3v-5.9V9.6h-7.4v0l-13.6 0v7.4l13.6 0v39.7 7.4h7.4v0l56.2 0v-7.4l-56.2 0v-9.6H81.9zM32.3 29.1h42.9v12H32.3V29.1z" fill="#fffbf4" data-fill-palette-color="quaternary"></path></g><path d="M35.9 68c-6.2 0-11.2 5-11.2 11.2 0 6.2 5 11.2 11.2 11.2s11.2-5 11.2-11.2C47.1 73 42.1 68 35.9 68zM35.9 82.5c-1.8 0-3.3-1.5-3.3-3.3 0-1.8 1.5-3.3 3.3-3.3s3.3 1.5 3.3 3.3C39.2 81 37.7 82.5 35.9 82.5z" fill="#fffbf4" data-fill-palette-color="quaternary"></path><path d="M77.6 68c-6.2 0-11.2 5-11.2 11.2 0 6.2 5 11.2 11.2 11.2 6.2 0 11.2-5 11.2-11.2C88.8 73 83.8 68 77.6 68zM77.6 82.5c-1.8 0-3.3-1.5-3.3-3.3 0-1.8 1.5-3.3 3.3-3.3 1.8 0 3.3 1.5 3.3 3.3C80.9 81 79.4 82.5 77.6 82.5z" fill="#fffbf4" data-fill-palette-color="quaternary"></path></g></svg></g></svg></g></svg></g></svg></g></svg></g><defs></defs></svg><rect width="395.52" height="80.62113436964357" fill="none" stroke="none" visibility="hidden"></rect></g></svg></g></svg>